<mxfile host="65bd71144e">
    <diagram name="ページ1" id="cP9uIEpzttqN5rxpSAbw">
        <mxGraphModel dx="1013" dy="777" grid="1" gridSize="10" guides="1" tooltips="1" connect="1" arrows="1" fold="1" page="1" pageScale="1" pageWidth="1654" pageHeight="1169" math="0" shadow="0">
            <root>
                <mxCell id="0"/>
                <mxCell id="1" parent="0"/>
                <mxCell id="2H462rarafApNkUSx5-_-1" value="虚構と糸&lt;div&gt;～時の砂時計～&lt;/div&gt;" style="text;html=1;align=center;verticalAlign=middle;whiteSpace=wrap;rounded=0;fillColor=#dae8fc;strokeColor=#6c8ebf;" parent="1" vertex="1">
                    <mxGeometry x="80" y="70" width="160" height="40" as="geometry"/>
                </mxCell>
                <mxCell id="6" value="" style="endArrow=classic;html=1;" edge="1" parent="1">
                    <mxGeometry width="50" height="50" relative="1" as="geometry">
                        <mxPoint x="269.83" y="360" as="sourcePoint"/>
                        <mxPoint x="269.83" y="200" as="targetPoint"/>
                    </mxGeometry>
                </mxCell>
                <mxCell id="7" value="時間" style="text;html=1;align=center;verticalAlign=middle;whiteSpace=wrap;rounded=0;" vertex="1" parent="1">
                    <mxGeometry x="239.83" y="160" width="60" height="30" as="geometry"/>
                </mxCell>
                <mxCell id="8" value="現在" style="text;html=1;align=center;verticalAlign=middle;whiteSpace=wrap;rounded=0;" vertex="1" parent="1">
                    <mxGeometry x="289.83" y="269.12" width="60" height="30" as="geometry"/>
                </mxCell>
                <mxCell id="9" value="過去" style="text;html=1;align=center;verticalAlign=middle;whiteSpace=wrap;rounded=0;" vertex="1" parent="1">
                    <mxGeometry x="289.83" y="330" width="60" height="30" as="geometry"/>
                </mxCell>
                <mxCell id="12" value="未来" style="text;html=1;align=center;verticalAlign=middle;whiteSpace=wrap;rounded=0;" vertex="1" parent="1">
                    <mxGeometry x="289.83" y="200" width="60" height="30" as="geometry"/>
                </mxCell>
                <mxCell id="13" value="" style="group" vertex="1" connectable="0" parent="1">
                    <mxGeometry x="109.99999999999999" y="199.47" width="119.47000000000003" height="160.18000000000004" as="geometry"/>
                </mxCell>
                <mxCell id="10" value="" style="triangle;whiteSpace=wrap;html=1;rotation=90;fillColor=#d5e8d4;strokeColor=#82b366;" vertex="1" parent="13">
                    <mxGeometry x="19.82000000000002" y="-19.819999999999993" width="79.83" height="119.47" as="geometry"/>
                </mxCell>
                <mxCell id="11" value="" style="triangle;whiteSpace=wrap;html=1;rotation=-90;fillColor=#fff2cc;strokeColor=#d6b656;" vertex="1" parent="13">
                    <mxGeometry x="19.82000000000002" y="60.53" width="79.83" height="119.47" as="geometry"/>
                </mxCell>
                <mxCell id="14" value="" style="group;opacity=50;" vertex="1" connectable="0" parent="1">
                    <mxGeometry x="440" y="199.82" width="169.47000000000003" height="160.18000000000004" as="geometry"/>
                </mxCell>
                <mxCell id="15" value="" style="triangle;whiteSpace=wrap;html=1;rotation=90;fillColor=#d5e8d4;strokeColor=#82b366;opacity=50;" vertex="1" parent="14">
                    <mxGeometry x="19.82000000000002" y="-19.819999999999993" width="79.83" height="119.47" as="geometry"/>
                </mxCell>
                <mxCell id="16" value="" style="triangle;whiteSpace=wrap;html=1;rotation=-90;fillColor=#fff2cc;strokeColor=#d6b656;opacity=50;" vertex="1" parent="14">
                    <mxGeometry x="19.82000000000002" y="60.53" width="79.83" height="119.47" as="geometry"/>
                </mxCell>
                <mxCell id="22" value="" style="triangle;whiteSpace=wrap;html=1;rotation=90;fillColor=#d5e8d4;strokeColor=#82b366;opacity=50;" vertex="1" parent="1">
                    <mxGeometry x="499.82000000000005" y="180" width="79.83" height="119.47" as="geometry"/>
                </mxCell>
                <mxCell id="23" value="" style="triangle;whiteSpace=wrap;html=1;rotation=-90;fillColor=#fff2cc;strokeColor=#d6b656;opacity=50;" vertex="1" parent="1">
                    <mxGeometry x="499.82000000000005" y="260.35" width="79.83" height="119.47" as="geometry"/>
                </mxCell>
                <mxCell id="24" value="人の時間軸" style="text;html=1;align=center;verticalAlign=middle;whiteSpace=wrap;rounded=0;fillColor=#d5e8d4;strokeColor=#82b366;" vertex="1" parent="1">
                    <mxGeometry x="80" y="130" width="200" height="30" as="geometry"/>
                </mxCell>
                <mxCell id="25" value="ある夫婦の時間軸" style="text;html=1;align=center;verticalAlign=middle;whiteSpace=wrap;rounded=0;fillColor=#d5e8d4;strokeColor=#82b366;" vertex="1" parent="1">
                    <mxGeometry x="430" y="130" width="200" height="30" as="geometry"/>
                </mxCell>
                <mxCell id="26" value="自分" style="text;html=1;align=center;verticalAlign=middle;whiteSpace=wrap;rounded=0;" vertex="1" parent="1">
                    <mxGeometry x="620" y="264.90999999999997" width="60" height="30" as="geometry"/>
                </mxCell>
                <mxCell id="27" value="子" style="text;html=1;align=center;verticalAlign=middle;whiteSpace=wrap;rounded=0;" vertex="1" parent="1">
                    <mxGeometry x="620" y="234.90999999999997" width="60" height="30" as="geometry"/>
                </mxCell>
                <mxCell id="28" value="孫" style="text;html=1;align=center;verticalAlign=middle;whiteSpace=wrap;rounded=0;" vertex="1" parent="1">
                    <mxGeometry x="620" y="199.99999999999997" width="60" height="30" as="geometry"/>
                </mxCell>
                <mxCell id="29" value="親" style="text;html=1;align=center;verticalAlign=middle;whiteSpace=wrap;rounded=0;" vertex="1" parent="1">
                    <mxGeometry x="620" y="294.90999999999997" width="60" height="30" as="geometry"/>
                </mxCell>
                <mxCell id="30" value="祖父母" style="text;html=1;align=center;verticalAlign=middle;whiteSpace=wrap;rounded=0;" vertex="1" parent="1">
                    <mxGeometry x="620" y="329.99999999999994" width="60" height="30" as="geometry"/>
                </mxCell>
            </root>
        </mxGraphModel>
    </diagram>
</mxfile>